<svg width="28" height="24" viewBox="0 0 28 24" fill="none" xmlns="http://www.w3.org/2000/svg">
<path d="M19.95 10.3H17.7944L20.7388 5.19999C20.9642 4.80954 21.0253 4.34553 20.9086 3.91003C20.7919 3.47454 20.507 3.10323 20.1166 2.87779L15.7 0.32779C15.3095 0.102366 14.8455 0.0412771 14.41 0.157961C13.9745 0.274646 13.6032 0.559546 13.3778 0.94999L9.12779 8.31099C8.94797 8.62208 8.87135 8.98214 8.90891 9.33949C8.94648 9.69684 9.09631 10.0331 9.33689 10.3H8.04999C7.82456 10.3 7.60836 10.3895 7.44895 10.5489C7.28955 10.7084 7.19999 10.9246 7.19999 11.15C7.19999 11.3754 7.28955 11.5916 7.44895 11.751C7.60836 11.9104 7.82456 12 8.04999 12H19.95C20.1754 12 20.3916 11.9104 20.551 11.751C20.7104 11.5916 20.8 11.3754 20.8 11.15C20.8 10.9246 20.7104 10.7084 20.551 10.5489C20.3916 10.3895 20.1754 10.3 19.95 10.3ZM14.85 1.79999L19.2666 4.34999L15.8326 10.3H12.572L10.6 9.16099L14.85 1.79999ZM21.7129 6.89999L20.732 8.59999H21.65L25.475 13.7H2.52499L6.34999 8.59999H7.04019C7.07419 8.50139 7.11839 8.40506 7.17279 8.31099L7.98879 6.89999H6.34999C6.08608 6.89999 5.82579 6.96144 5.58973 7.07946C5.35368 7.19749 5.14834 7.36886 4.98999 7.57999L0.739994 13.2461C0.519296 13.5404 0.399994 13.8983 0.399994 14.2661V22.2C0.399994 22.6509 0.5791 23.0833 0.897912 23.4021C1.21672 23.7209 1.64913 23.9 2.09999 23.9H25.9C26.3509 23.9 26.7833 23.7209 27.1021 23.4021C27.4209 23.0833 27.6 22.6509 27.6 22.2V14.2661C27.6 13.8983 27.4807 13.5404 27.26 13.2461L23.01 7.57999C22.8581 7.37714 22.6628 7.2108 22.4384 7.09315C22.214 6.97549 21.9661 6.9095 21.7129 6.89999Z" fill="white"/>
</svg>
